<svg width="88" height="88" viewBox="0 0 88 88" fill="none" xmlns="http://www.w3.org/2000/svg">
<rect width="88" height="88" rx="44" fill="white"/>
<path d="M71.5 44.6723C71.5 42.7778 71.3166 40.8222 71.0111 38.9889H44.5497V49.8056H59.7054C59.0943 53.289 57.0776 56.3446 54.0831 58.3002L63.1277 65.328C68.4444 60.378 71.5 53.1668 71.5 44.6723Z" fill="#4280EF"/>
<path d="M44.5497 72.0503C52.1276 72.0503 58.4832 69.5447 63.1277 65.2669L54.0832 58.3002C51.5776 60.0113 48.3387 60.9891 44.5497 60.9891C37.2163 60.9891 31.044 56.039 28.7829 49.439L19.4939 56.589C24.2606 66.0614 33.9163 72.0503 44.5497 72.0503Z" fill="#34A353"/>
<path d="M28.7828 49.3779C27.6217 45.8945 27.6217 42.1056 28.7828 38.6222L19.4938 31.411C15.5216 39.3555 15.5216 48.7056 19.4938 56.5891L28.7828 49.3779Z" fill="#F6B704"/>
<path d="M44.5497 27.072C48.522 27.0109 52.4331 28.5387 55.3054 31.2888L63.311 23.222C58.2388 18.4553 51.5165 15.8886 44.5497 15.9497C33.9163 15.9497 24.2606 21.9387 19.4939 31.411L28.7829 38.6222C31.044 31.961 37.2163 27.072 44.5497 27.072Z" fill="#E54335"/>
</svg>
